<svg width="13" height="14" viewBox="0 0 13 14" fill="none" xmlns="http://www.w3.org/2000/svg">
<path d="M8.75632 0.866699H3.40861C1.79657 0.866699 0.489746 2.27404 0.489746 4.01009V9.76916C0.489746 11.5052 1.79657 12.9126 3.40861 12.9126H8.75632C10.3684 12.9126 11.6752 11.5052 11.6752 9.76916V4.01009C11.6752 2.27404 10.3684 0.866699 8.75632 0.866699Z" stroke="#0A2804" stroke-width="0.800077" stroke-linecap="round" stroke-linejoin="round"/>
<path d="M6.08284 10.0441C7.70077 10.0441 9.01236 8.63163 9.01236 6.88924C9.01236 5.14686 7.70077 3.73438 6.08284 3.73438C4.46491 3.73438 3.15332 5.14686 3.15332 6.88924C3.15332 8.63163 4.46491 10.0441 6.08284 10.0441Z" stroke="#0A2804" stroke-width="0.800077" stroke-linecap="round" stroke-linejoin="round"/>
<path d="M9.27853 3.15955C9.42561 3.15955 9.54485 3.03114 9.54485 2.87274C9.54485 2.71434 9.42561 2.58594 9.27853 2.58594C9.13144 2.58594 9.01221 2.71434 9.01221 2.87274C9.01221 3.03114 9.13144 3.15955 9.27853 3.15955Z" stroke="#0A2804" stroke-width="0.800077" stroke-linecap="round" stroke-linejoin="round"/>
</svg>
