<svg width="13" height="14" viewBox="0 0 13 14" fill="none" xmlns="http://www.w3.org/2000/svg">
<path d="M8.75693 0.866699H3.40922C1.79718 0.866699 0.490356 2.27404 0.490356 4.01009V9.76916C0.490356 11.5052 1.79718 12.9126 3.40922 12.9126H8.75693C10.369 12.9126 11.6758 11.5052 11.6758 9.76916V4.01009C11.6758 2.27404 10.369 0.866699 8.75693 0.866699Z" stroke="#0A2804" stroke-width="0.800077" stroke-linecap="round" stroke-linejoin="round"/>
<path d="M6.08302 10.0441C7.70095 10.0441 9.01254 8.63163 9.01254 6.88924C9.01254 5.14686 7.70095 3.73438 6.08302 3.73438C4.46509 3.73438 3.1535 5.14686 3.1535 6.88924C3.1535 8.63163 4.46509 10.0441 6.08302 10.0441Z" stroke="#0A2804" stroke-width="0.800077" stroke-linecap="round" stroke-linejoin="round"/>
<path d="M9.27889 3.15955C9.42598 3.15955 9.54521 3.03114 9.54521 2.87274C9.54521 2.71434 9.42598 2.58594 9.27889 2.58594C9.13181 2.58594 9.01257 2.71434 9.01257 2.87274C9.01257 3.03114 9.13181 3.15955 9.27889 3.15955Z" stroke="#0A2804" stroke-width="0.800077" stroke-linecap="round" stroke-linejoin="round"/>
</svg>
